<svg width="759" height="1020" viewBox="0 0 759 1020" fill="none" xmlns="http://www.w3.org/2000/svg">
<path d="M637.79 -53.5196H642.702C990.973 -50.7037 1272.72 250.188 1272.72 621.233C1272.72 783.765 1218.63 932.861 1128.57 1049.32L1130.37 1050.72L1128.57 1049.32C1108.88 1074.79 1087.44 1098.71 1064.5 1120.85L1013.59 1041.45C1016.97 1038.03 1020.34 1034.58 1023.66 1031.04L1023.66 1031.04C1043.04 1010.44 1060.78 988.571 1076.82 965.607L1076.82 965.607C1146.03 866.472 1183.43 746.887 1183.43 621.233C1183.43 466.467 1126.71 320.916 1023.66 211.425L1022 212.99L1023.66 211.425C920.609 101.95 783.556 41.6123 637.771 41.6123C491.987 41.6123 354.934 101.93 251.88 211.425L253.542 212.99L251.88 211.425C148.849 320.916 92.1115 466.447 92.1115 621.233C92.1115 746.088 129.045 864.933 197.404 963.688C213.787 987.37 231.959 1009.9 251.88 1031.06L251.884 1031.07C254.69 1034.03 257.503 1036.97 260.356 1039.87L209.233 1119.13C186.37 1096.88 165.061 1072.87 145.444 1047.3C56.3174 931.134 2.84402 782.852 2.84402 621.253C2.84402 248.458 287.251 -53.5196 637.79 -53.5196Z" stroke="#FF00FF" stroke-width="4.56499"/>
<path d="M957.1 848.911C945.803 865.094 933.335 880.534 919.747 895.106L639.487 458.081L637.571 455.094L635.647 458.076L354.616 893.776C341.117 879.177 328.74 863.72 317.53 847.525C310.229 836.979 303.48 826.076 297.164 814.902L637.784 286.834L977.495 816.564C971.682 826.734 965.518 836.69 958.887 846.351L957.1 848.911Z" stroke="#FF00FF" stroke-width="4.56499"/>
</svg>
